<svg width="400" height="400" viewBox="0 0 400 400" fill="none" xmlns="http://www.w3.org/2000/svg">
<path fill-rule="evenodd" clip-rule="evenodd" d="M143.032 28.124C142.024 28.749 141.503 29.143 138.352 31.674C136.895 32.843 135.24 34.165 134.674 34.612C131.305 37.271 123.798 45.135 120.2 49.776C118.88 51.478 117.575 53.112 117.3 53.407C117.025 53.702 116.8 54.067 116.8 54.218C116.8 54.468 114.115 58.33 113.613 58.8C113.393 59.006 113.028 59.632 111.297 62.768C110.741 63.776 109.988 65.05 109.625 65.6C109.262 66.15 108.588 67.41 108.127 68.4C107.667 69.39 106.64 71.533 105.845 73.163C105.05 74.793 104.4 76.368 104.4 76.663C104.4 76.958 104.22 77.2 104 77.2C103.78 77.2 103.6 77.639 103.6 78.176C103.6 78.713 103.42 79.264 103.2 79.4C102.98 79.536 102.8 80.076 102.8 80.6C102.8 81.124 102.641 81.651 102.448 81.77C102.254 81.89 102.002 82.396 101.888 82.894C101.773 83.392 101.302 84.787 100.84 85.994C100.378 87.201 99.9996 88.586 99.9996 89.071C99.9996 89.556 99.8196 90.064 99.5996 90.2C99.3796 90.336 99.1996 91.056 99.1996 91.8C99.1996 92.544 99.0436 93.249 98.8536 93.367C98.6636 93.484 98.3786 94.35 98.2206 95.29C97.5116 99.518 97.2436 101.195 96.8266 104C96.5816 105.65 96.1836 108.175 95.9426 109.611C95.3826 112.948 95.7566 124.753 96.6016 130.4C96.9466 132.71 97.3316 135.276 97.4566 136.103C97.5816 136.929 97.8446 137.705 98.0416 137.826C98.2386 137.948 98.3996 138.656 98.3996 139.4C98.3996 140.144 98.5796 140.864 98.7996 141C99.0196 141.136 99.1996 141.687 99.1996 142.224C99.1996 143.397 99.4846 143.429 100.8 142.4C101.35 141.97 102.01 141.614 102.267 141.609C102.523 141.604 102.793 141.465 102.867 141.3C103.006 140.986 104.748 139.542 106.573 138.226C107.164 137.801 108.132 137.025 108.724 136.504C109.316 135.982 110.497 134.98 111.349 134.278C113.59 132.428 123.189 122.802 124.6 120.989C125.26 120.141 126.205 119.039 126.7 118.542C127.195 118.044 127.6 117.448 127.6 117.218C127.6 116.988 127.735 116.8 127.9 116.799C128.065 116.799 128.736 115.944 129.391 114.899C130.047 113.855 131.245 112.119 132.055 111.042C132.865 109.965 134.032 108.12 134.648 106.942C135.265 105.764 135.911 104.8 136.084 104.8C136.258 104.8 136.4 104.455 136.4 104.033C136.4 103.612 136.539 103.207 136.708 103.133C137.149 102.942 140.8 95.665 140.8 94.976C140.8 94.659 140.98 94.4 141.2 94.4C141.42 94.4 141.6 94.128 141.6 93.795C141.6 93.462 141.759 92.877 141.953 92.495C142.148 92.113 142.508 91.305 142.753 90.7C142.999 90.095 143.365 89.195 143.566 88.7C143.767 88.205 144.254 86.81 144.647 85.6C145.04 84.39 145.505 83.229 145.681 83.02C145.856 82.811 146 82.147 146 81.544C146 80.941 146.18 80.336 146.4 80.2C146.62 80.064 146.8 79.344 146.8 78.6C146.8 77.856 146.957 77.15 147.148 77.032C147.34 76.914 147.605 75.958 147.738 74.908C147.871 73.859 148.163 72.1 148.388 71C149.703 64.567 150.065 52.495 149.144 45.8C148.026 37.673 147.578 35.233 147.156 34.973C146.96 34.852 146.8 34.221 146.8 33.571C146.8 32.921 146.638 32.077 146.441 31.695C146.244 31.313 145.766 30.235 145.38 29.3C144.644 27.517 144.293 27.341 143.032 28.124ZM254.583 29.9C254.172 31.165 253.693 32.371 253.518 32.58C253.343 32.789 253.2 33.518 253.2 34.2C253.2 34.882 253.038 35.611 252.841 35.82C252.644 36.029 252.382 36.92 252.26 37.8C252.139 38.68 251.805 40.75 251.52 42.4C250.828 46.395 250.849 65.193 251.55 68.8C251.827 70.23 252.148 72.39 252.262 73.6C252.377 74.81 252.635 75.971 252.835 76.18C253.036 76.389 253.2 77.066 253.2 77.685C253.2 78.304 253.373 79.123 253.584 79.505C253.795 79.887 254.454 81.82 255.049 83.8C255.644 85.78 256.282 87.571 256.466 87.78C256.649 87.989 256.8 88.574 256.8 89.08C256.8 89.586 256.98 90 257.2 90C257.42 90 257.6 90.45 257.6 91C257.6 91.55 257.78 92 258 92C258.22 92 258.4 92.295 258.4 92.655C258.4 93.468 262.492 101.859 264.279 104.708C265.005 105.867 265.6 106.992 265.6 107.208C265.6 107.423 265.78 107.6 266 107.6C266.22 107.6 266.4 107.799 266.4 108.043C266.4 108.426 271.356 115.854 271.976 116.4C272.101 116.51 273.268 117.933 274.569 119.562C278.814 124.877 284.086 130.244 289.2 134.458C290.63 135.636 291.86 136.735 291.933 136.9C292.007 137.065 292.307 137.2 292.6 137.2C292.893 137.2 293.193 137.338 293.267 137.507C293.34 137.676 294.39 138.528 295.6 139.4C296.81 140.272 297.86 141.124 297.933 141.293C298.007 141.462 298.412 141.6 298.833 141.6C299.255 141.6 299.6 141.78 299.6 142C299.6 143.346 301.456 142.285 301.874 140.7C302.652 137.753 303.6 132.63 303.6 131.371C303.6 130.705 303.785 129.975 304.012 129.748C304.539 129.221 304.275 107.259 303.698 103.6C303.248 100.746 302.496 97.511 301.951 96.081C301.758 95.576 301.6 94.641 301.6 94.005C301.6 93.368 301.42 92.736 301.2 92.6C300.98 92.464 300.8 91.654 300.8 90.8C300.8 89.946 300.62 89.136 300.4 89C300.18 88.864 300 88.311 300 87.771C300 87.231 299.835 86.477 299.634 86.095C299.055 84.998 298.139 82.743 297.564 81C297.274 80.12 296.893 79.229 296.718 79.02C296.543 78.811 296.4 78.314 296.4 77.915C296.4 77.516 296.24 76.877 296.044 76.495C295.848 76.113 295.268 74.9 294.756 73.8C294.244 72.7 293.414 71.129 292.912 70.308C292.411 69.487 292 68.542 292 68.208C292 67.874 291.82 67.6 291.6 67.6C291.38 67.6 291.2 67.24 291.2 66.8C291.2 66.36 291.02 66 290.8 66C290.58 66 290.4 65.64 290.4 65.2C290.4 64.76 290.22 64.4 290 64.4C289.78 64.4 289.6 64.194 289.6 63.941C289.6 63.403 286.797 59.062 286.323 58.867C286.145 58.793 286 58.568 286 58.365C286 56.062 271.369 39.345 264.425 33.715C263.668 33.102 262.438 32.015 261.69 31.3C260.943 30.585 260.167 30 259.966 30C259.765 30 259.6 29.82 259.6 29.6C259.6 29.38 259.364 29.2 259.075 29.2C258.787 29.2 258.164 28.84 257.692 28.4C256.172 26.984 255.411 27.351 254.583 29.9ZM60.8616 57.513C60.1596 58.499 58.4246 62.069 57.6116 64.2C57.0956 65.554 56.3236 67.365 55.9526 68.095C55.7586 68.477 55.5996 69.055 55.5996 69.381C55.5996 69.925 54.8036 72.009 53.9506 73.695C53.7576 74.077 53.5996 74.842 53.5996 75.395C53.5996 75.948 53.4386 76.4 53.2416 76.4C53.0446 76.4 52.7846 77.075 52.6646 77.9C52.2486 80.746 51.9436 82.203 51.5996 83C51.4096 83.44 51.1546 84.43 51.0316 85.2C50.9096 85.97 50.6256 87.77 50.4016 89.2C50.1766 90.63 49.8276 92.25 49.6256 92.8C48.1626 96.781 48.5436 121.541 50.1856 129.2C50.5396 130.85 50.9356 132.969 51.0676 133.909C51.1986 134.849 51.4616 135.715 51.6526 135.833C51.8436 135.951 51.9996 136.746 51.9996 137.6C51.9996 138.454 52.1796 139.264 52.3996 139.4C52.6196 139.536 52.7996 140.179 52.7996 140.829C52.7996 141.479 52.9626 142.323 53.1626 142.705C53.3626 143.087 53.8026 144.3 54.1396 145.4C54.8096 147.581 56.2376 151.67 56.8276 153.1C57.0326 153.595 57.3606 154.405 57.5566 154.9C58.8136 158.07 62.9566 166.007 65.0836 169.318C66.4676 171.473 67.5996 173.408 67.5996 173.618C67.5996 173.828 67.7346 174.001 67.8996 174.003C68.0646 174.004 68.6496 174.666 69.1996 175.474C69.7496 176.281 70.3796 177.135 70.5996 177.371C70.8196 177.607 71.5316 178.511 72.1816 179.381C73.6366 181.327 76.6376 184.402 77.0766 184.395C77.4686 184.39 80.3996 178.204 80.3996 177.383C80.3996 177.062 80.5796 176.8 80.7996 176.8C81.0196 176.8 81.1996 176.361 81.1996 175.824C81.1996 175.287 81.3796 174.736 81.5996 174.6C81.8196 174.464 81.9996 173.924 81.9996 173.4C81.9996 172.876 82.1796 172.336 82.3996 172.2C82.6196 172.064 82.7996 171.549 82.7996 171.056C82.7996 170.563 82.9496 169.989 83.1316 169.78C83.3146 169.571 83.7816 168.23 84.1696 166.8C84.5576 165.37 85.0376 163.887 85.2376 163.505C85.4366 163.123 85.5996 162.394 85.5996 161.885C85.5996 161.376 85.7626 160.789 85.9626 160.58C86.1626 160.371 86.4226 159.3 86.5416 158.2C86.6596 157.1 86.9396 155.21 87.1636 154C87.6946 151.134 88.2326 147.768 88.7946 143.8C89.3816 139.649 89.3576 120.663 88.7616 118.118C88.2826 116.073 87.7396 112.457 87.3446 108.694C87.2116 107.425 86.9446 106.289 86.7506 106.17C86.5576 106.051 86.3996 105.344 86.3996 104.6C86.3996 103.856 86.2196 103.136 85.9996 103C85.7796 102.864 85.5996 102.371 85.5996 101.905C85.5996 101.438 85.4226 100.504 85.2066 99.828C83.2356 93.66 82.7126 92.079 82.3816 91.3C82.1716 90.805 81.8376 89.995 81.6396 89.5C81.4416 89.005 80.9016 87.747 80.4396 86.704C79.9776 85.662 79.5996 84.682 79.5996 84.528C79.5996 84.138 75.8936 76.646 75.5786 76.4C75.4386 76.29 74.6206 74.85 73.7616 73.2C72.9026 71.55 72.1006 70.11 71.9806 70C71.3746 69.449 67.1996 63.223 67.1996 62.872C67.1996 62.649 67.0646 62.407 66.8996 62.333C66.7346 62.26 65.8816 61.3 65.0036 60.2C64.1246 59.1 63.0106 57.797 62.5266 57.305L61.6466 56.411L60.8616 57.513ZM336.867 58.483C335.982 59.427 334.675 61.01 333.964 62C333.252 62.99 332.519 63.86 332.335 63.933C332.151 64.007 332 64.322 332 64.633C332 64.945 331.865 65.202 331.7 65.203C331.535 65.205 330.682 66.33 329.805 67.703C328.927 69.077 328.072 70.26 327.905 70.333C327.737 70.407 327.6 70.812 327.6 71.233C327.6 71.655 327.462 72 327.294 72C327.126 72 326.681 72.675 326.304 73.5C325.445 75.381 323.251 79.275 322.765 79.78C322.564 79.989 322.4 80.484 322.4 80.88C322.4 81.276 322.22 81.6 322 81.6C321.78 81.6 321.6 81.896 321.6 82.258C321.6 82.62 320.959 84.285 320.175 85.958C319.391 87.631 318.56 89.45 318.328 90C318.096 90.55 317.748 91.313 317.553 91.695C317.359 92.077 317.2 92.664 317.2 93C317.2 93.336 317.038 93.923 316.839 94.305C316.64 94.687 316.259 95.81 315.992 96.8C315.149 99.923 314.316 102.575 313.952 103.295C313.758 103.677 313.6 104.766 313.6 105.715C313.6 106.664 313.437 107.611 313.239 107.82C312.873 108.205 312.746 109.015 311.927 116.2C311.32 121.527 311.312 139.886 311.915 145.4C312.18 147.82 312.504 150.79 312.635 152C312.766 153.21 313.037 154.371 313.237 154.58C313.437 154.789 313.6 155.826 313.6 156.885C313.6 157.944 313.767 159.123 313.971 159.505C314.51 160.515 316.404 166.881 316.402 167.676C316.401 168.048 316.58 168.464 316.8 168.6C317.02 168.736 317.2 169.289 317.2 169.829C317.2 170.369 317.38 171.168 317.6 171.605C317.82 172.042 318.18 172.758 318.4 173.195C318.62 173.632 318.8 174.341 318.8 174.771C318.8 175.201 318.948 175.644 319.129 175.756C319.31 175.868 319.955 177.273 320.562 178.88C321.17 180.486 322.037 182.559 322.489 183.486L323.312 185.173L325.072 183.286C326.04 182.249 327.133 180.905 327.502 180.3C327.871 179.695 328.314 179.2 328.486 179.2C328.659 179.2 328.8 179.02 328.8 178.801C328.8 178.48 332 174 332.8 173.2C332.91 173.09 333.257 172.55 333.572 172C333.887 171.45 334.709 170.01 335.4 168.8C336.091 167.59 336.913 166.15 337.228 165.6C337.543 165.05 337.891 164.51 338.002 164.4C338.24 164.164 341.113 158.248 341.693 156.8C341.913 156.25 342.252 155.487 342.447 155.105C342.641 154.723 342.8 154.138 342.8 153.805C342.8 153.472 342.98 153.2 343.2 153.2C343.42 153.2 343.6 152.851 343.6 152.424C343.6 151.997 343.78 151.536 344 151.4C344.22 151.264 344.401 150.848 344.402 150.476C344.404 150.104 344.674 149.284 345.002 148.654C345.331 148.024 345.6 147.18 345.6 146.778C345.6 146.376 345.78 145.936 346 145.8C346.22 145.664 346.4 145.034 346.4 144.4C346.4 143.766 346.58 143.136 346.8 143C347.02 142.864 347.2 142.311 347.2 141.771C347.2 141.231 347.364 140.477 347.565 140.095C347.765 139.713 348.148 138.32 348.416 137C348.684 135.68 349.15 133.584 349.452 132.342C349.753 131.101 350 129.652 350 129.122C350 128.593 350.168 127.989 350.373 127.78C351.579 126.55 351.612 94.045 350.409 91.4C350.209 90.96 349.968 89.88 349.873 89C349.778 88.12 349.393 86.14 349.018 84.6C348.197 81.237 347.634 78.659 347.334 76.896C347.212 76.179 346.951 75.494 346.756 75.373C346.56 75.252 346.4 74.623 346.4 73.976C346.4 73.329 346.22 72.8 346 72.8C345.78 72.8 345.6 72.412 345.6 71.939C345.6 71.181 344.282 67.888 343.184 65.905C342.973 65.523 342.8 64.99 342.8 64.719C342.8 63.968 339.693 57.775 339.046 57.238C338.585 56.856 338.168 57.094 336.867 58.483ZM197.2 72.411C195.146 72.685 195.199 72.698 198 72.607C200.922 72.511 206.183 72.891 208.6 73.372C209.695 73.59 209.677 73.563 208.4 73.064C206.68 72.393 200.181 72.014 197.2 72.411ZM191.8 73.2L191 73.544L191.8 73.532C192.24 73.526 193.05 73.376 193.6 73.2L194.6 72.88L193.6 72.868C193.05 72.862 192.24 73.011 191.8 73.2ZM186.6 74.682C184.84 75.232 182.77 75.836 182 76.023L180.6 76.363L182 76.224C183.476 76.077 190.36 74.173 190.722 73.812C191.13 73.403 189.771 73.69 186.6 74.682ZM210.4 74C210.73 74.213 211.27 74.388 211.6 74.388C212.133 74.388 212.133 74.345 211.6 74C211.27 73.787 210.73 73.612 210.4 73.612C209.867 73.612 209.867 73.655 210.4 74ZM214.421 75.467C215.62 76.053 217.078 76.863 217.662 77.267C218.798 78.051 219.381 78.216 219.034 77.655C218.753 77.201 213.313 74.4 212.711 74.4C212.454 74.4 213.223 74.88 214.421 75.467ZM173.023 76.889C172.68 77.378 172.425 78.413 172.454 79.189C172.495 80.242 172.551 80.346 172.673 79.6C173.14 76.758 173.487 76.445 176.341 76.296L179 76.157L176.323 76.078C173.961 76.009 173.572 76.105 173.023 76.889ZM219.6 78.354C219.6 78.57 219.995 78.871 220.478 79.025C222.034 79.519 231.088 88.837 231.531 90.4C231.831 91.457 231.937 91.573 231.964 90.874C232.018 89.481 231.622 88.949 227.246 84.524C223.334 80.569 219.6 77.556 219.6 78.354ZM171.842 82.7C171.674 83.415 171.379 84 171.187 84C170.863 84 170 86.491 170.008 87.4C170.015 88.114 170.788 86.623 170.794 85.884C170.797 85.49 171.177 84.657 171.639 84.033C172.1 83.409 172.404 82.561 172.313 82.149C172.195 81.611 172.062 81.766 171.842 82.7ZM169.323 90.2C168.461 94.544 167.917 98.593 168.06 99.605C168.138 100.152 168.441 98.62 168.735 96.2C169.028 93.78 169.448 91.322 169.667 90.738C169.886 90.154 170.006 89.254 169.933 88.738C169.852 88.164 169.615 88.731 169.323 90.2ZM232.068 93.4C232.062 94.06 232.211 94.96 232.4 95.4C232.87 96.494 232.87 94.667 232.4 93.2C232.088 92.225 232.079 92.23 232.068 93.4ZM232.877 98.2C232.867 98.86 233.003 100.21 233.18 101.2L233.5 103L233.503 101.2C233.504 100.21 233.368 98.86 233.2 98.2L232.895 97L232.877 98.2ZM167.494 102.956C167.332 104.032 167.224 106.102 167.254 107.556L167.308 110.2L167.662 106.6C168.069 102.471 167.951 99.922 167.494 102.956ZM233.6 105.423C233.6 106.646 233.397 108.875 233.149 110.377L232.698 113.108L234.049 115.054C235.631 117.333 235.845 122.026 234.575 126.602C234.209 127.921 233.82 129.497 233.709 130.105C233.598 130.713 233.349 131.308 233.154 131.429C232.959 131.549 232.8 131.853 232.8 132.104C232.8 132.985 233.653 131.733 233.996 130.349C234.18 129.607 234.628 127.92 234.992 126.6C236.183 122.28 236.026 116.827 234.663 115.205L233.526 113.851L233.811 108.525C233.968 105.596 233.985 103.2 233.848 103.2C233.712 103.2 233.6 104.2 233.6 105.423ZM165.668 115.044C163.809 117.3 163.568 121.649 165.055 126.123C165.41 127.191 165.536 127.364 165.402 126.6C164.341 120.554 164.274 116.772 165.219 116.188C165.673 115.908 167.311 113.6 167.056 113.6C166.947 113.6 166.323 114.25 165.668 115.044ZM165.6 128.151C165.6 128.618 166.877 131.257 167.029 131.105C167.238 130.895 166.088 128 165.795 128C165.688 128 165.6 128.068 165.6 128.151ZM167.221 131.706C167.174 132.396 169.027 134.721 170.279 135.541C171.585 136.397 172.464 137.928 174.336 142.607C175.912 146.547 176.45 147.683 176.646 147.487C176.756 147.378 176.454 146.413 175.976 145.344C174.985 143.127 174.461 141.908 173.167 138.8C172.663 137.59 171.798 136.24 171.245 135.8C169.743 134.605 168.679 133.516 167.921 132.4C167.548 131.85 167.233 131.538 167.221 131.706ZM231.57 133.858L230.6 134.915L231.7 134.212C232.305 133.825 232.8 133.349 232.8 133.154C232.8 132.61 232.618 132.714 231.57 133.858ZM228.196 136.272C227.858 137.081 227.646 137.936 227.725 138.172C227.804 138.407 228.097 137.913 228.375 137.072C228.665 136.195 229.246 135.397 229.74 135.198L230.6 134.851L229.705 134.825C229.042 134.807 228.652 135.18 228.196 136.272ZM226.803 140.673C226.541 141.513 225.274 144.36 223.988 147C221.298 152.523 220.862 153.599 220.42 155.8C220.243 156.68 219.973 157.76 219.819 158.2C219.544 158.989 219.547 158.989 220.037 158.215C220.311 157.783 220.679 156.661 220.854 155.723C221.195 153.899 221.867 152.298 224.686 146.6C226.584 142.764 227.778 139.645 227.469 139.335C227.365 139.231 227.065 139.833 226.803 140.673ZM177.6 149.658C177.6 149.764 177.96 150.595 178.4 151.506C178.84 152.416 179.2 153.338 179.2 153.554C179.2 158.752 190.667 171.6 195.307 171.6C195.566 171.6 194.523 170.996 192.989 170.258C187.393 167.566 179.6 157.777 179.6 153.438C179.6 153.101 179.221 152.144 178.757 151.312C177.876 149.732 177.6 149.337 177.6 149.658ZM11.5996 153.458C11.5996 155.375 11.7646 157.496 11.9666 158.172C12.1686 158.847 12.5466 160.48 12.8066 161.8C13.0666 163.12 13.4526 165.01 13.6646 166C13.8776 166.99 14.1486 168.476 14.2676 169.303C14.3866 170.129 14.6446 170.905 14.8416 171.026C15.0386 171.148 15.1996 171.867 15.1996 172.624C15.1996 173.381 15.3796 174 15.5996 174C15.8196 174 15.9996 174.542 15.9996 175.205C15.9996 175.868 16.1616 176.723 16.3586 177.105C16.5556 177.487 17.0276 178.61 17.4066 179.6C18.4786 182.402 18.8646 183.344 19.2466 184.095C19.4406 184.477 19.5996 185.152 19.5996 185.595C19.5996 186.038 19.7796 186.4 19.9996 186.4C20.2196 186.4 20.3996 186.762 20.3996 187.205C20.3996 187.648 20.5666 188.323 20.7696 188.705C20.9736 189.087 22.2406 191.65 23.5856 194.4C26.8556 201.086 29.1816 205.371 29.6316 205.533C29.8336 205.607 29.9996 205.997 29.9996 206.4C29.9996 206.803 30.1596 207.193 30.3546 207.267C30.5506 207.34 32.0086 209.284 33.5966 211.586C36.1876 215.344 37.7516 217.296 42.3996 222.576C44.6526 225.135 49.6306 230.038 52.1716 232.2C53.4646 233.3 54.9896 234.613 55.5606 235.119C57.2846 236.644 61.5136 239.6 61.9716 239.6C62.2066 239.6 62.4016 239.735 62.4026 239.9C62.4046 240.065 63.5296 240.918 64.9026 241.795C66.2766 242.673 67.4596 243.528 67.5326 243.695C67.6066 243.863 67.9966 244 68.3996 244C68.8026 244 69.1926 244.135 69.2666 244.3C69.4456 244.704 75.2686 247.601 75.8996 247.6C76.1746 247.6 76.3996 247.78 76.3996 248C76.3996 248.22 76.7486 248.4 77.1756 248.4C77.6026 248.4 78.0636 248.58 78.1996 248.8C78.3356 249.02 78.8566 249.2 79.3566 249.2C79.8566 249.2 80.3886 249.322 80.5376 249.471C80.8946 249.828 85.8946 251.608 87.3046 251.879C87.9126 251.996 88.5076 252.251 88.6286 252.446C88.7486 252.641 89.4556 252.8 90.1996 252.8C90.9436 252.8 91.6516 252.961 91.7736 253.158C92.0016 253.526 93.8096 253.871 97.5356 254.257L99.6716 254.478L99.4716 251.939C99.2396 248.998 98.6906 245.994 97.7656 242.6C97.4056 241.28 97.0216 239.524 96.9126 238.697C96.8046 237.871 96.5546 237.095 96.3576 236.974C96.1606 236.852 95.9996 236.234 95.9996 235.6C95.9996 234.966 95.8196 234.336 95.5996 234.2C95.3796 234.064 95.1996 233.333 95.1996 232.576C95.1996 231.819 95.0196 231.2 94.7996 231.2C94.5796 231.2 94.3996 230.671 94.3996 230.024C94.3996 229.377 94.2416 228.749 94.0476 228.63C93.8536 228.51 93.3966 227.464 93.0326 226.306C92.6676 225.148 92.2186 223.84 92.0346 223.4C91.3506 221.76 90.0626 218.905 88.6066 215.8C87.7816 214.04 86.9056 212.15 86.6586 211.6C86.4126 211.05 85.4206 209.25 84.4536 207.6C82.0196 203.444 81.1456 201.931 80.6366 200.994C80.1936 200.178 78.6116 197.897 77.7276 196.8C77.2286 196.181 74.8116 192.905 73.3996 190.934C72.9596 190.32 71.9526 189.093 71.1616 188.208C70.3706 187.324 69.3806 186.162 68.9616 185.626C67.7046 184.019 57.0706 173.492 55.3986 172.2C54.5446 171.54 53.4756 170.637 53.0226 170.194C52.5706 169.751 50.6696 168.325 48.7996 167.025C46.9296 165.726 45.3396 164.513 45.2666 164.331C45.1926 164.149 44.9546 164 44.7366 164C44.5186 164 43.1386 163.23 41.6696 162.289C40.2016 161.347 36.8396 159.529 34.1996 158.248C29.6116 156.021 28.6616 155.589 26.3996 154.7C25.8496 154.484 25.0866 154.148 24.7046 153.953C24.3226 153.759 23.6836 153.6 23.2846 153.6C22.8856 153.6 22.3886 153.457 22.1796 153.282C21.9706 153.107 20.7196 152.639 19.3996 152.242C18.0796 151.845 16.6866 151.358 16.3046 151.16C15.9226 150.962 15.0566 150.8 14.3786 150.8C13.7016 150.8 12.7986 150.614 12.3736 150.386C11.6356 149.991 11.5996 150.135 11.5996 153.458ZM387.014 150.378C386.87 150.61 386.058 150.8 385.21 150.8C384.361 150.8 383.607 150.935 383.533 151.1C383.46 151.265 381.78 151.93 379.8 152.578C376.002 153.821 375.536 153.998 374.105 154.738C373.613 154.992 372.971 155.2 372.679 155.2C371.824 155.2 360.43 161.11 358.372 162.621C357.338 163.379 356.292 164 356.046 164C355.801 164 355.6 164.18 355.6 164.4C355.6 164.62 355.33 164.8 355 164.8C354.67 164.8 354.4 164.935 354.399 165.1C354.399 165.265 353.544 165.936 352.499 166.59C351.455 167.245 350.251 168.1 349.825 168.49C349.398 168.881 348.813 169.2 348.525 169.2C348.236 169.2 348 169.38 348 169.6C348 169.82 347.838 170 347.64 170C347.442 170 346.677 170.585 345.94 171.3C345.203 172.015 343.264 173.77 341.631 175.2C338.042 178.344 335.067 181.326 332.054 184.799C330.814 186.229 329.343 187.849 328.784 188.399C328.226 188.95 326.702 190.93 325.399 192.8C324.096 194.67 322.888 196.26 322.715 196.333C322.542 196.407 322.4 196.677 322.399 196.933C322.399 197.19 321.859 198.03 321.2 198.8C320.541 199.57 320.001 200.322 320.001 200.471C320 200.621 319.722 201.021 319.382 201.361C319.041 201.701 317.983 203.469 317.029 205.29C316.076 207.11 314.758 209.59 314.101 210.8C312.199 214.305 311.332 216.035 310.195 218.6C309.609 219.92 308.966 221.313 308.765 221.695C308.564 222.077 308.4 222.716 308.4 223.115C308.4 223.514 308.251 224.011 308.07 224.22C307.888 224.429 307.489 225.41 307.183 226.4C306.876 227.39 306.396 228.65 306.115 229.2C305.835 229.75 305.604 230.594 305.602 231.076C305.601 231.558 305.42 232.064 305.2 232.2C304.98 232.336 304.8 232.966 304.8 233.6C304.8 234.234 304.62 234.864 304.4 235C304.18 235.136 304 235.856 304 236.6C304 237.344 303.82 238.064 303.6 238.2C303.38 238.336 303.2 239.146 303.2 240C303.2 240.854 303.044 241.649 302.853 241.767C302.662 241.885 302.393 242.751 302.254 243.691C302.115 244.631 301.831 246.39 301.622 247.6C301.413 248.81 301.117 250.835 300.964 252.1L300.686 254.4H302.463C303.44 254.4 304.411 254.238 304.62 254.041C304.829 253.844 305.72 253.588 306.6 253.474C310.057 253.023 316.901 250.974 319.695 249.553C320.077 249.359 320.628 249.2 320.92 249.2C321.437 249.2 322.222 248.848 328.4 245.839C332.692 243.75 341.303 238.238 344.745 235.378C349.692 231.267 361.2 219.8 361.2 218.982C361.2 218.851 361.425 218.518 361.7 218.242C362.446 217.496 364.114 215.339 366.374 212.2C367.483 210.66 368.527 209.22 368.695 209C368.863 208.78 369.255 208.105 369.568 207.5C369.88 206.895 370.285 206.4 370.468 206.4C370.65 206.4 370.8 206.225 370.8 206.012C370.8 205.798 371.567 204.313 372.505 202.712C374.017 200.128 378.327 191.527 379.174 189.4C379.623 188.272 380.221 186.829 380.913 185.2C381.24 184.43 381.745 183.08 382.036 182.2C382.326 181.32 382.707 180.429 382.882 180.22C383.057 180.011 383.2 179.437 383.2 178.944C383.2 178.451 383.38 177.936 383.6 177.8C383.82 177.664 384 177.034 384 176.4C384 175.766 384.16 175.148 384.356 175.027C384.551 174.906 384.803 174.221 384.914 173.504C385.167 171.88 386.296 167.216 387.04 164.725C387.348 163.694 387.6 162.155 387.6 161.305C387.6 160.455 387.761 159.589 387.958 159.38C388.693 158.6 388.674 150.231 387.937 150.086C387.573 150.014 387.157 150.146 387.014 150.378ZM217.975 161.3C215.827 164.746 211.795 168.456 208.515 170.002C206.928 170.751 205.71 171.443 205.809 171.542C207.209 172.943 216.648 164.949 219.028 160.347C219.988 158.489 219.388 159.033 217.975 161.3ZM219.786 170.814C218.695 171.922 217.128 173.295 216.304 173.866C214.915 174.829 213.355 177.088 213.783 177.517C213.886 177.619 214.199 177.185 214.479 176.552C214.759 175.918 215.35 175.14 215.794 174.822C216.237 174.504 217.816 173.078 219.302 171.654L222.005 169.064L223.502 170.271C225.438 171.83 227.044 174.138 227.768 176.4C228.155 177.609 228.353 177.892 228.372 177.262C228.432 175.244 223.749 168.848 222.185 168.81C221.957 168.805 220.877 169.706 219.786 170.814ZM176.701 171.1C173.691 173.755 171.599 176.787 171.6 178.496C171.6 178.773 172.112 177.919 172.737 176.598C173.946 174.042 177.879 170 179.157 170C179.539 170 180.366 170.538 180.996 171.196C181.626 171.854 182.232 172.302 182.342 172.192C182.752 171.781 180.215 169.6 179.326 169.6C178.818 169.6 177.637 170.275 176.701 171.1ZM165.462 171.268C164.616 171.702 164.005 172.138 164.103 172.236C164.201 172.334 164.795 172.148 165.422 171.822C166.67 171.175 167.144 171.292 166.508 172.09C164.864 174.151 164.475 177.169 164.278 189.4C164.074 202.021 164.006 202.617 162.725 203.024C160.807 203.633 157.541 208.073 157.632 209.949C157.649 210.307 157.94 209.816 158.279 208.857C158.892 207.123 161.114 204.563 163.4 202.957L164.6 202.114L164.732 189.757C164.865 177.24 165.071 175.352 166.555 173C168.01 170.695 167.66 170.14 165.462 171.268ZM233.78 171.307C233.667 171.601 233.877 172.553 234.247 173.421C234.661 174.394 235.025 176.765 235.197 179.6L235.475 184.2L235.525 180.2C235.561 177.212 235.382 175.644 234.816 174.004C233.973 171.562 234.052 171.19 235.257 171.943C235.709 172.225 236.167 172.366 236.276 172.257C236.385 172.148 235.914 171.769 235.23 171.416C234.219 170.893 233.947 170.872 233.78 171.307ZM197.206 172.043C197.753 172.196 199.28 172.32 200.6 172.32C201.92 172.32 203.447 172.196 203.994 172.043C204.541 171.891 203.014 171.767 200.6 171.767C198.186 171.767 196.659 171.891 197.206 172.043ZM162.58 172.748C162.371 172.939 160.76 173.866 159 174.806C154.016 177.47 151.504 178.838 150.2 179.596C149.54 179.98 148.01 180.834 146.8 181.495C142.36 183.92 139.39 185.668 139 186.088C138.498 186.627 138.433 186.661 143.6 183.711C145.91 182.392 149.42 180.451 151.4 179.397C153.38 178.343 155.18 177.352 155.4 177.194C155.62 177.035 157.42 176.047 159.4 174.997C163.108 173.031 164.07 172.4 163.36 172.4C163.14 172.4 162.789 172.557 162.58 172.748ZM182.809 172.687C182.813 172.859 183.529 173.504 184.399 174.119C185.269 174.734 186.288 175.904 186.665 176.719C190.314 184.613 197.328 188.868 203.747 187.081C205.659 186.548 204.636 186.329 202.615 186.838C197.327 188.169 191.145 184.422 187.745 177.824C186.476 175.361 182.776 171.512 182.809 172.687ZM237.02 172.747C237.369 173.065 239.523 174.229 248.155 178.765C249.891 179.677 251.373 180.36 251.449 180.284C251.525 180.208 250.465 179.55 249.094 178.822C245.115 176.71 240.74 174.361 238.886 173.342C237.135 172.38 236.34 172.126 237.02 172.747ZM212.282 179.696C211.084 181.741 207.668 185.042 206.156 185.617C205.569 185.84 205.187 186.121 205.307 186.241C205.681 186.614 207.766 185.334 209.461 183.689C211.236 181.966 213.789 178.456 213.487 178.154C213.383 178.049 212.84 178.743 212.282 179.696ZM228.54 181.6C228.54 183.47 228.609 184.235 228.693 183.3C228.777 182.365 228.777 180.835 228.693 179.9C228.609 178.965 228.54 179.73 228.54 181.6ZM252.2 180.704C252.42 180.935 253.77 181.744 255.2 182.502C260.932 185.54 265.013 188.206 267.5 190.538C268.215 191.208 268.8 191.629 268.8 191.473C268.8 190.947 266.223 188.799 263 186.638C259.828 184.512 251.431 179.898 252.2 180.704ZM171.286 192.873L171.2 202.346L172.4 203.2C173.06 203.67 173.6 203.862 173.6 203.627C173.6 203.392 173.465 203.197 173.3 203.194C171.911 203.166 171.802 202.514 171.586 192.915L171.372 183.4L171.286 192.873ZM235.64 185.236C235.601 186.25 236.886 187.251 238.119 187.168C238.383 187.15 238.062 186.898 237.404 186.608C236.746 186.319 236.089 185.658 235.944 185.141C235.682 184.208 235.679 184.209 235.64 185.236ZM225.4 187.007C223.86 187.542 222.399 187.984 222.153 187.99C219.06 188.061 209.155 197.07 209.209 199.762C209.214 200.003 209.762 199.266 210.428 198.125C212.548 194.489 219.825 188.4 222.051 188.4C222.735 188.4 227.79 186.709 228.18 186.35C228.698 185.873 228.592 185.898 225.4 187.007ZM135.2 188.341C132.147 190.607 129.323 193.295 126.601 196.523C124.728 198.746 124.294 199.373 122.126 203C119.78 206.926 116.038 215.772 116.521 216.254C116.628 216.361 117.101 215.253 117.573 213.792C118.648 210.466 120.849 205.671 122.31 203.475C122.923 202.554 123.686 201.283 124.006 200.65C125.735 197.235 132.765 190.277 137.874 186.924C138.273 186.661 138.42 186.439 138.2 186.43C137.98 186.42 136.63 187.28 135.2 188.341ZM240.516 187.845C245.809 189.472 250.638 193.24 253.484 197.967C254.208 199.169 254.8 199.929 254.8 199.655C254.8 196.252 243.525 187.101 239.488 187.228C238.98 187.244 239.419 187.507 240.516 187.845ZM269.806 192.388C271.107 194.006 271.6 194.478 271.6 194.103C271.6 193.909 271.018 193.221 270.306 192.575C269.268 191.632 269.169 191.595 269.806 192.388ZM226.8 193.833C225.541 194.348 225.521 194.379 226.6 194.135C227.26 193.986 229.69 193.865 232 193.865C234.31 193.865 236.74 193.986 237.4 194.135C238.479 194.379 238.459 194.348 237.2 193.833C236.324 193.475 234.378 193.261 232 193.261C229.622 193.261 227.676 193.475 226.8 193.833ZM223.407 194.924C215.026 199.957 214.086 202.886 214.489 222.727L214.6 228.2L217.44 228.23C220.11 228.259 223.177 229.376 223.209 230.333C223.214 230.48 223.585 231.05 224.033 231.6L224.848 232.6L224.213 231.298C223.146 229.112 220.696 227.794 217.777 227.836L215.301 227.871L215.055 223.036C214.125 204.732 215.805 199.118 223.308 195.466C224.459 194.907 225.13 194.448 224.8 194.448C224.47 194.447 223.843 194.661 223.407 194.924ZM239.2 194.564C239.2 194.655 239.979 195.106 240.93 195.566C248.032 199.004 249.2 202.094 249.2 217.448V228.058L247.074 227.792C241.3 227.07 237.125 232.687 239.614 237.829C240.416 239.486 242.892 241.602 244.022 241.598C244.34 241.596 244.15 241.358 243.6 241.068C241.361 239.889 240.761 239.33 239.998 237.707C237.639 232.688 240.784 228.307 246.8 228.232L249.4 228.2L249.524 217.6C249.687 203.617 249.172 201.474 244.741 197.684C242.557 195.817 239.2 193.926 239.2 194.564ZM272 194.593C272 194.73 272.955 196.048 274.123 197.521C277.27 201.494 280.069 206.461 282.005 211.513C282.281 212.235 282.604 212.73 282.721 212.612C282.97 212.363 282.826 212.027 279.964 206.202C277.751 201.696 272 193.314 272 194.593ZM255.917 219.116C256.034 235.717 256.032 235.761 255.154 236.979L254.273 238.2L255.337 237.23L256.4 236.261L256.394 219.83C256.391 210.794 256.256 203.192 256.094 202.937C255.932 202.683 255.853 209.964 255.917 219.116ZM207.85 204.05C207.713 204.738 207.6 212.221 207.6 220.681V236.062L208.769 237.231C209.412 237.874 210.369 238.4 210.894 238.4C211.434 238.4 212.351 238.922 213 239.6C213.632 240.26 214.326 240.8 214.541 240.8C215.334 240.8 211.772 238.033 210.958 238.017C210.496 238.007 209.612 237.532 208.995 236.961L207.874 235.922L208.112 219.361C208.349 202.893 208.328 201.66 207.85 204.05ZM175.324 205.572C176.136 206.547 176.8 207.582 176.8 207.872C176.8 208.162 176.985 208.4 177.21 208.4C177.861 208.4 176.612 206.329 175.16 205C173.877 203.826 173.881 203.838 175.324 205.572ZM165.631 209.836C163.137 211.934 164.613 215.674 167.882 215.536L169.4 215.472L168 215.306C163.957 214.827 163.773 209.2 167.8 209.2C170.159 209.2 171.788 212.555 170.2 214.143C169.437 214.906 169.412 215.454 170.169 214.826C171.902 213.388 171.43 209.972 169.392 209.197C167.768 208.579 166.961 208.716 165.631 209.836ZM177.75 212.028C177.765 216.936 175.887 219.902 171.582 221.769C170.822 222.099 170.47 222.375 170.8 222.383C174.885 222.479 179.229 215.229 178.099 210.2C177.792 208.831 177.742 209.095 177.75 212.028ZM157.293 212.4C157.293 213.17 157.375 213.485 157.476 213.1C157.576 212.715 157.576 212.085 157.476 211.7C157.375 211.315 157.293 211.63 157.293 212.4ZM283.646 216C283.627 216.55 283.787 217.27 284 217.6C284.494 218.364 284.494 217.542 284 216L283.68 215L283.646 216ZM115.873 217.353C115.723 217.745 115.611 218.366 115.625 218.733C115.642 219.175 115.781 219.074 116.037 218.434C116.249 217.903 116.361 217.282 116.285 217.054C116.209 216.827 116.024 216.961 115.873 217.353ZM158.424 217.028C158.352 218.338 164.242 223.091 164.999 222.334C165.106 222.227 164.301 221.736 163.21 221.243C161.386 220.419 160.156 219.302 158.924 217.354C158.661 216.939 158.436 216.793 158.424 217.028ZM284.446 219.2C284.427 219.75 284.587 220.47 284.8 220.8C285.294 221.564 285.294 220.742 284.8 219.2L284.48 218.2L284.446 219.2ZM115.249 220C115.216 220.33 115.089 221.05 114.967 221.6C114.775 222.464 114.807 222.503 115.199 221.888C115.448 221.497 115.575 220.777 115.481 220.288C115.386 219.8 115.282 219.67 115.249 220ZM285.367 222.8C285.597 224.697 286.312 227.195 286.341 226.2C286.354 225.76 286.102 224.5 285.781 223.4C285.333 221.864 285.237 221.725 285.367 222.8ZM167.1 222.682C167.595 222.778 168.405 222.778 168.9 222.682C169.395 222.587 168.99 222.509 168 222.509C167.01 222.509 166.605 222.587 167.1 222.682ZM114.038 225.29C113.777 226.671 113.384 228.79 113.165 230C112.946 231.21 112.595 232.968 112.384 233.906C112.173 234.844 112.016 236.104 112.035 236.706C112.067 237.696 112.358 236.403 113.635 229.6C113.862 228.39 114.246 226.454 114.488 225.298C114.731 224.142 114.835 223.102 114.721 222.988C114.607 222.874 114.3 223.91 114.038 225.29ZM286.644 228.8C287.067 232.359 287.694 235.639 287.909 235.424C288.148 235.185 287.364 230.141 286.787 228.2C286.494 227.216 286.468 227.324 286.644 228.8ZM224.872 234.462C224.763 237.281 223.436 239.411 221.046 240.602C219.944 241.151 219.384 241.6 219.8 241.6C222.38 241.6 225.342 237.613 225.093 234.475L224.944 232.6L224.872 234.462ZM112 238.191C112 238.862 114.505 241.504 117.2 243.675C118.85 245.004 123.415 249.176 127.345 252.946C138.516 263.663 140.986 265.947 141.188 265.745C141.292 265.641 141.178 265.431 140.935 265.278C140.568 265.048 127.273 252.358 123.031 248.191C122.354 247.526 120.27 245.727 118.4 244.194C114.535 241.025 114.578 241.065 113.097 239.269C112.494 238.537 112 238.052 112 238.191ZM250.961 239.223C250.288 239.896 249.032 240.698 248.169 241.006C246.853 241.475 246.766 241.568 247.628 241.582C248.248 241.593 249.322 241.03 250.334 240.164C251.257 239.374 252.504 238.579 253.106 238.398L254.2 238.069L253.192 238.034C252.57 238.013 251.717 238.467 250.961 239.223ZM286.2 239.501C284.748 241.246 278.072 247.021 273.977 250.073C271.255 252.102 265.562 257.6 266.183 257.6C266.327 257.6 267.85 256.186 269.567 254.458C271.283 252.729 273.568 250.72 274.644 249.992C275.72 249.264 277.68 247.739 279 246.603C280.32 245.468 281.92 244.102 282.555 243.569C284.095 242.277 286.872 239.571 287.552 238.7C288.604 237.352 287.388 238.072 286.2 239.501ZM45.5046 252.622C45.3426 252.788 42.5526 253.064 39.3046 253.236C30.0046 253.729 19.5996 255.43 19.5996 256.457C19.5996 256.815 20.4296 258.432 20.8016 258.8C20.9136 258.91 21.7466 259.99 22.6526 261.2C23.5596 262.41 24.7016 263.85 25.1906 264.4C25.6786 264.95 26.9156 266.385 27.9396 267.589C30.0706 270.097 36.0396 276.07 38.0456 277.702C38.7906 278.308 39.7896 279.118 40.2656 279.502C40.7426 279.886 41.5096 280.515 41.9706 280.9C42.4316 281.285 42.8886 281.6 42.9856 281.6C43.0836 281.6 44.3866 282.519 45.8816 283.643C47.3766 284.766 48.8696 285.786 49.1996 285.908C49.5296 286.03 50.2776 286.461 50.8616 286.866C52.8296 288.227 56.8716 290.4 57.4376 290.4C57.7466 290.4 57.9996 290.58 57.9996 290.8C57.9996 291.02 58.3596 291.2 58.7996 291.2C59.2396 291.2 59.5996 291.38 59.5996 291.6C59.5996 291.82 59.8246 292 60.0996 292C60.3746 292.001 61.8596 292.628 63.3996 293.394C64.9396 294.16 66.5146 294.79 66.8996 294.793C67.2846 294.797 67.5996 294.98 67.5996 295.2C67.5996 295.42 67.9616 295.6 68.4046 295.6C68.8476 295.6 69.5226 295.759 69.9046 295.953C71.1506 296.587 72.5696 297.138 74.1996 297.622C75.0796 297.882 76.3906 298.344 77.1136 298.648C77.8356 298.952 78.7696 299.2 79.1896 299.2C79.6096 299.2 80.0636 299.38 80.1996 299.6C80.3356 299.82 81.0306 300 81.7436 300C82.4566 300 83.2106 300.162 83.4196 300.359C83.6286 300.556 84.5196 300.812 85.3996 300.926C86.2796 301.041 87.8096 301.328 88.7996 301.563C92.0156 302.328 96.9486 303.22 99.1996 303.443C100.41 303.564 101.762 303.835 102.204 304.047C103.204 304.526 126.994 304.247 134 303.674C138.435 303.311 141.036 302.903 147.6 301.538C148.59 301.333 149.94 301.07 150.6 300.955C151.562 300.787 152.816 300.338 153.911 299.769C154.132 299.654 153.254 297.711 152.733 297.162C152.44 296.853 151.667 295.888 151.016 295.017C149.523 293.019 137.473 280.889 135.6 279.496C134.83 278.924 133.57 277.904 132.8 277.229C132.03 276.554 131.19 276.001 130.933 276.001C130.677 276 130.407 275.863 130.333 275.695C130.133 275.236 126.058 272.4 125.599 272.4C125.38 272.4 125.2 272.22 125.2 272C125.2 271.78 124.93 271.6 124.6 271.6C124.27 271.6 124 271.42 124 271.2C124 270.98 123.64 270.8 123.2 270.8C122.76 270.8 122.4 270.62 122.4 270.4C122.4 270.18 122.223 270 122.008 270C121.792 270 120.631 269.37 119.427 268.6C118.223 267.83 116.96 267.2 116.619 267.2C116.279 267.2 116 267.02 116 266.8C116 266.58 115.64 266.4 115.2 266.4C114.76 266.4 114.4 266.22 114.4 266C114.4 265.78 114.136 265.6 113.814 265.6C113.492 265.6 112.422 265.15 111.437 264.6C110.452 264.05 109.366 263.6 109.023 263.6C108.68 263.6 108.4 263.42 108.4 263.2C108.4 262.98 108.051 262.8 107.624 262.8C107.197 262.8 106.736 262.62 106.6 262.4C106.464 262.18 106.001 262 105.571 262C105.141 262 104.387 261.792 103.895 261.538C101.986 260.551 101.587 260.4 100.885 260.4C100.486 260.4 99.9886 260.257 99.7796 260.082C99.5706 259.907 98.3196 259.439 96.9996 259.042C95.6796 258.645 94.2866 258.158 93.9046 257.96C93.5226 257.762 92.6786 257.6 92.0286 257.6C91.3786 257.6 90.7356 257.42 90.5996 257.2C90.4636 256.98 89.7436 256.8 88.9996 256.8C88.2556 256.8 87.5356 256.62 87.3996 256.4C87.2636 256.18 86.7156 256 86.1816 256C85.6476 256 84.4436 255.82 83.5056 255.6C79.1086 254.568 75.9106 254 74.5006 254C73.6526 254 72.7886 253.834 72.5796 253.632C71.9526 253.025 46.0566 252.059 45.5046 252.622ZM340.4 252.772C339.85 252.963 336.756 253.138 333.524 253.16C330.292 253.182 327.55 253.357 327.431 253.55C327.312 253.742 326.266 253.998 325.107 254.119C322.99 254.34 318.152 255.24 314.8 256.037C313.81 256.272 312.324 256.56 311.497 256.675C310.671 256.79 309.895 257.045 309.774 257.242C309.652 257.439 308.843 257.6 307.976 257.6C307.109 257.6 306.4 257.78 306.4 258C306.4 258.22 305.896 258.4 305.28 258.4C304.664 258.4 303.989 258.555 303.78 258.744C303.571 258.933 302.41 259.405 301.2 259.792C299.99 260.18 298.687 260.655 298.305 260.848C297.923 261.042 297.336 261.2 297 261.2C296.664 261.2 296.077 261.359 295.695 261.553C295.313 261.748 294.55 262.084 294 262.302C292.777 262.784 288.459 264.735 287.505 265.236C287.123 265.436 286.553 265.6 286.239 265.6C285.924 265.6 285.607 265.735 285.533 265.9C285.404 266.19 283.975 267.004 279.8 269.165C278.7 269.734 277.74 270.335 277.667 270.5C277.593 270.665 277.355 270.8 277.137 270.8C274.817 270.8 255.638 286.984 251.541 292.4C250.958 293.17 250.138 294.16 249.719 294.6C249.299 295.04 248.299 296.375 247.496 297.567L246.037 299.734L247.064 300.267C247.629 300.56 248.69 300.8 249.422 300.8C250.154 300.8 250.848 300.955 250.965 301.143C251.082 301.332 252.217 301.6 253.489 301.739C254.76 301.878 257.42 302.264 259.4 302.597C261.38 302.93 263.9 303.306 265 303.433C266.1 303.559 267.36 303.834 267.8 304.043C268.832 304.534 295.883 304.236 300.2 303.687C301.96 303.463 304.84 302.97 306.6 302.591C310.251 301.805 313.129 301.258 315.303 300.937C316.129 300.815 316.905 300.555 317.026 300.358C317.148 300.161 317.856 300 318.6 300C319.344 300 320.064 299.82 320.2 299.6C320.336 299.38 320.941 299.2 321.544 299.2C322.147 299.2 322.811 299.045 323.02 298.856C323.229 298.667 324.39 298.195 325.6 297.808C326.81 297.42 328.113 296.945 328.495 296.752C328.877 296.558 329.464 296.4 329.8 296.4C330.136 296.4 330.723 296.241 331.105 296.047C331.487 295.852 332.25 295.516 332.8 295.298C336.076 294.005 343.433 290.396 347 288.333C348.32 287.569 349.85 286.687 350.4 286.372C350.95 286.057 351.49 285.698 351.6 285.574C351.71 285.449 352.88 284.645 354.2 283.787C355.52 282.93 356.69 282.122 356.8 281.992C356.91 281.863 358.35 280.69 360 279.386C361.65 278.082 363.555 276.472 364.234 275.808C364.912 275.143 366.442 273.699 367.634 272.599C368.825 271.498 370.25 270.038 370.8 269.355C371.657 268.29 373.831 265.745 377.851 261.103C378.373 260.5 378.8 259.859 378.8 259.679C378.8 259.498 379.128 258.999 379.529 258.568C381.014 256.974 380.874 256.12 379.052 255.661C375.626 254.797 370.714 254 368.815 254C367.733 254 366.752 253.845 366.635 253.656C366.214 252.975 342.145 252.163 340.4 252.772ZM264.204 259.196C263.574 259.854 263.135 260.465 263.229 260.555C263.323 260.645 264 260.107 264.734 259.359C265.467 258.612 265.906 258 265.709 258C265.511 258 264.834 258.538 264.204 259.196ZM255 268.577C247.48 276.159 241.299 281.911 238.2 284.209C237.32 284.862 236.5 285.531 236.377 285.696C236.255 285.862 235.265 286.439 234.177 286.978C233.09 287.517 232.42 287.967 232.688 287.979C234.953 288.077 263.97 262.172 262.8 261.096C262.69 260.995 259.18 264.361 255 268.577ZM141.6 266.331C141.6 266.567 141.853 266.904 142.162 267.08C142.472 267.256 145.127 269.574 148.062 272.23C152.969 276.671 157.823 280.845 159.8 282.324C161.079 283.28 157.563 280.019 154.553 277.456C153.039 276.168 150.9 274.275 149.8 273.252C145.172 268.945 141.6 265.93 141.6 266.331ZM160.816 283.03C160.825 283.234 161.68 284.071 162.716 284.89C163.752 285.71 165.32 287.015 166.2 287.79C167.274 288.736 168.721 289.463 170.6 290.002C172.14 290.443 173.953 290.983 174.628 291.202C175.304 291.421 176.294 291.588 176.828 291.574C177.363 291.559 176.81 291.292 175.6 290.98C169.195 289.328 168.084 288.901 166.372 287.428C165.586 286.753 164.416 285.77 163.772 285.245C163.127 284.719 162.195 283.923 161.7 283.475C161.205 283.027 160.807 282.827 160.816 283.03ZM230.119 288.562C228.559 289.13 227.804 289.818 229.2 289.4C230.377 289.047 232.38 288.018 231.8 288.064C231.58 288.081 230.824 288.305 230.119 288.562ZM225.6 290.039C225.05 290.234 223.79 290.656 222.8 290.977C221.81 291.299 221.36 291.566 221.8 291.571C222.24 291.575 223.86 291.142 225.4 290.607C226.94 290.072 227.84 289.645 227.4 289.66C226.96 289.674 226.15 289.844 225.6 290.039ZM178.4 291.979C178.73 292.204 179.525 292.391 180.167 292.394C181.704 292.402 181.384 292.17 179.4 291.838C178.254 291.646 177.97 291.686 178.4 291.979ZM218.4 292L217.4 292.32L218.4 292.354C218.95 292.373 219.67 292.213 220 292C220.764 291.506 219.942 291.506 218.4 292ZM183 292.8C183.66 292.968 184.74 293.105 185.4 293.105H186.6L185.4 292.8C184.74 292.632 183.66 292.495 183 292.495H181.8L183 292.8ZM214 292.8C213.028 293.111 213.033 293.12 214.2 293.12C214.86 293.12 215.85 292.976 216.4 292.8C217.372 292.489 217.367 292.48 216.2 292.48C215.54 292.48 214.55 292.624 214 292.8ZM188.8 293.62C189.79 293.797 191.77 293.929 193.2 293.914L195.8 293.887L193.6 293.583C192.39 293.416 190.41 293.284 189.2 293.29L187 293.3L188.8 293.62ZM205.2 293.6L203 293.87L205.8 293.905C207.34 293.925 209.41 293.797 210.4 293.62L212.2 293.3L209.8 293.315C208.48 293.324 206.41 293.452 205.2 293.6ZM197.712 294.295C198.764 294.377 200.384 294.376 201.312 294.292C202.24 294.208 201.38 294.141 199.4 294.142C197.42 294.143 196.66 294.212 197.712 294.295ZM136.8 306.044C136.03 306.243 134.14 306.592 132.6 306.82C131.06 307.047 129.124 307.335 128.297 307.459C127.471 307.583 126.695 307.845 126.574 308.042C126.452 308.239 125.654 308.4 124.8 308.4C123.946 308.4 123.136 308.58 123 308.8C122.864 309.02 122.324 309.2 121.8 309.2C121.276 309.2 120.736 309.38 120.6 309.6C120.464 309.82 120.01 310 119.59 310C119.17 310 118.146 310.295 117.314 310.655C116.481 311.016 115.44 311.442 115 311.602C114.051 311.947 112.583 312.531 111.2 313.114C110.65 313.346 108.13 314.541 105.6 315.769C103.07 316.998 100.79 318.002 100.533 318.001C100.277 318.001 100.007 318.149 99.9326 318.331C99.7786 318.714 95.6176 321.179 93.6996 322.023C92.9846 322.338 92.3996 322.731 92.3996 322.898C92.3996 323.064 92.1446 323.2 91.8326 323.2C91.5216 323.2 91.2066 323.335 91.1326 323.5C90.9476 323.918 85.2936 327.6 84.8376 327.6C84.6336 327.6 84.4066 327.744 84.3326 327.921C84.2596 328.097 82.6696 329.237 80.7996 330.453C77.6606 332.495 72.8906 335.922 71.0126 337.486C70.3786 338.014 70.3396 338.174 70.8126 338.307C71.1356 338.398 72.2096 338.842 73.1996 339.294C74.1896 339.745 75.8556 340.419 76.9006 340.792C77.9466 341.164 78.9216 341.589 79.0676 341.735C79.2136 341.881 79.7426 342 80.2426 342C80.7426 342 81.2636 342.18 81.3996 342.4C81.5356 342.62 82.0886 342.8 82.6286 342.8C83.1686 342.8 83.9226 342.963 84.3046 343.163C85.4576 343.766 90.8906 345.274 92.5996 345.466C93.4796 345.565 94.5596 345.806 94.9996 346.002C98.1206 347.392 114.973 348.125 124 347.263C126.97 346.979 130.435 346.653 131.7 346.538C132.965 346.423 134 346.165 134 345.964C134 345.764 134.889 345.6 135.976 345.6C137.063 345.6 138.051 345.44 138.172 345.245C138.293 345.05 139.068 344.769 139.896 344.621C141.677 344.302 143.924 343.641 144.895 343.151C145.277 342.958 146.031 342.8 146.571 342.8C147.111 342.8 147.664 342.62 147.8 342.4C147.936 342.18 148.489 342 149.029 342C149.569 342 150.323 341.837 150.705 341.637C151.087 341.437 153.11 340.611 155.2 339.8C157.29 338.989 159.313 338.163 159.695 337.963C160.077 337.763 160.752 337.6 161.195 337.6C161.638 337.6 162 337.42 162 337.2C162 336.98 162.63 336.8 163.4 336.8C165.425 336.8 165.099 337.789 162.231 340.354C161.588 340.93 160.418 342.048 159.631 342.839C158.844 343.63 157.57 344.709 156.8 345.235C156.03 345.761 154.59 346.958 153.6 347.894C152.61 348.83 151.663 349.597 151.496 349.598C151.329 349.599 150.609 350.162 149.896 350.848C149.183 351.535 147.975 352.57 147.211 353.148C146.447 353.727 145.098 354.875 144.213 355.7C143.328 356.525 142.468 357.2 142.302 357.2C141.401 357.2 142.353 358.585 145.334 361.613C151.233 367.606 155.179 370.604 155.814 369.577C155.942 369.37 156.477 369.2 157.002 369.2C157.528 369.2 158.822 368.726 159.879 368.146C160.935 367.566 162.204 366.891 162.697 366.646C163.19 366.401 163.595 366.065 163.597 365.9C163.599 365.735 163.825 365.6 164.1 365.599C164.375 365.599 165.23 365.046 166 364.371C166.77 363.696 168.023 362.662 168.785 362.072C170.206 360.972 174.027 357.044 176.441 354.2C177.189 353.32 178.295 352.123 178.9 351.54C179.505 350.956 180 350.326 180 350.138C180 349.95 180.99 348.758 182.2 347.489C183.41 346.22 184.4 345.091 184.4 344.98C184.4 344.796 185.169 343.903 188 340.799C188.55 340.196 189.479 339.095 190.065 338.351C197.248 329.234 200.119 327.362 202.725 330.1C206.044 333.586 208.567 336.344 209.724 337.75C210.426 338.602 211.743 340.132 212.652 341.15C213.561 342.167 214.911 343.758 215.652 344.684C221.688 352.225 233.774 364.8 234.986 364.8C235.324 364.8 235.6 364.961 235.6 365.158C235.6 365.355 237.338 366.373 239.463 367.421C244.655 369.98 246.154 369.991 248.75 367.486C249.768 366.505 251.12 365.274 251.755 364.751C253.038 363.695 255.998 360.809 257.718 358.936L258.836 357.719L257.918 356.88C257.413 356.419 255.749 355.1 254.22 353.948C251.549 351.937 250.437 351.063 249.455 350.2C249.205 349.98 248.28 349.269 247.4 348.621C246.52 347.972 245.53 347.153 245.2 346.802C244.87 346.45 243.97 345.722 243.2 345.184C242.43 344.646 241.26 343.664 240.6 343.003C239.94 342.341 238.722 341.293 237.892 340.674C234.675 338.271 233.007 336.169 233.434 335.056C233.778 334.16 233.612 334.109 239 336.762C245.76 340.09 248.255 341.2 248.975 341.2C249.319 341.2 249.6 341.38 249.6 341.6C249.6 341.82 250.129 342 250.776 342C251.423 342 252.064 342.18 252.2 342.4C252.336 342.62 252.941 342.8 253.544 342.8C254.147 342.8 254.811 342.951 255.02 343.136C255.229 343.32 256.48 343.697 257.8 343.974C259.12 344.25 260.926 344.729 261.813 345.038C262.701 345.347 264.06 345.6 264.833 345.6C265.607 345.6 266.411 345.765 266.62 345.968C267.012 346.347 268.154 346.471 278 347.204C285.978 347.797 290.54 347.813 296.4 347.268C299.15 347.012 302.57 346.696 304 346.567C305.43 346.438 306.771 346.168 306.98 345.966C307.189 345.765 307.943 345.6 308.656 345.6C309.369 345.6 310.051 345.44 310.172 345.245C310.293 345.05 311.068 344.769 311.896 344.621C313.677 344.302 315.924 343.641 316.895 343.151C317.277 342.958 317.941 342.8 318.371 342.8C318.801 342.8 319.264 342.62 319.4 342.4C319.536 342.18 319.999 342 320.429 342C320.859 342 321.523 341.84 321.905 341.645C322.287 341.449 324.029 340.582 325.776 339.718C329.821 337.716 329.82 337.735 326.117 334.964C324.403 333.681 322.94 332.489 322.867 332.316C322.793 332.142 322.566 332 322.362 332C321.906 332 316.252 328.318 316.067 327.9C315.993 327.735 315.678 327.6 315.367 327.6C315.055 327.6 314.8 327.42 314.8 327.2C314.8 326.98 314.603 326.8 314.361 326.8C314.12 326.8 312.404 325.81 310.548 324.6C308.691 323.39 307.095 322.4 307 322.4C306.905 322.4 305.337 321.444 303.514 320.276C300.264 318.193 292.843 314.4 292.018 314.4C291.788 314.4 291.6 314.22 291.6 314C291.6 313.78 291.15 313.6 290.6 313.6C290.05 313.6 289.6 313.42 289.6 313.2C289.6 312.98 289.251 312.8 288.824 312.8C288.397 312.8 287.936 312.62 287.8 312.4C287.664 312.18 287.149 312 286.656 312C286.163 312 285.589 311.857 285.38 311.682C285.171 311.507 283.92 311.026 282.6 310.611C281.28 310.197 280.029 309.71 279.82 309.529C279.611 309.348 278.857 309.2 278.144 309.2C277.431 309.2 276.736 309.02 276.6 308.8C276.464 308.58 275.769 308.4 275.056 308.4C274.343 308.4 273.589 308.237 273.38 308.039C273.171 307.84 272.19 307.586 271.2 307.475C267.76 307.088 263.391 306.41 261.8 306.016C259.685 305.491 232.219 305.507 228.6 306.034C227.06 306.259 224.36 306.625 222.6 306.85C214.581 307.871 213.195 308.046 210 308.441C205.086 309.049 191.985 309.32 191.007 308.834C190.563 308.614 189.12 308.343 187.8 308.232C186.48 308.122 184.14 307.858 182.6 307.646C181.06 307.434 178.405 307.067 176.7 306.83C174.995 306.594 172.205 306.23 170.5 306.022C166.57 305.542 138.67 305.56 136.8 306.044Z" fill="#093B5B"/>
<path fill-rule="evenodd" clip-rule="evenodd" d="M196.6 72.838C194.84 73.013 192.77 73.331 192 73.545C186.48 75.078 183.614 75.944 183.186 76.209C182.912 76.378 180.672 76.491 178.208 76.46C173.017 76.395 173.071 76.354 172.57 80.781C172.418 82.126 171.984 83.626 171.606 84.114C171.228 84.601 170.792 85.54 170.638 86.2C170.272 87.762 169.698 90.337 169.434 91.6C168.955 93.887 168.001 102.201 167.574 107.8C167.131 113.614 167.078 113.849 165.859 115.4C163.985 117.782 164.16 123.833 166.243 128.7C168.001 132.804 168.705 133.806 171.235 135.8C171.793 136.24 172.663 137.59 173.167 138.8C173.671 140.01 174.317 141.54 174.604 142.2C174.89 142.86 175.455 144.21 175.859 145.2C176.263 146.19 177.27 148.345 178.097 149.989C178.924 151.633 179.6 153.22 179.6 153.515C179.6 154.548 182.397 160.094 184.173 162.583C192.048 173.619 204.911 175.098 214.024 166.015C218.027 162.024 219.491 159.52 220.813 154.4C221.069 153.41 222.41 150.26 223.795 147.4C225.179 144.54 226.627 141.21 227.013 140C228.494 135.352 228.672 135.005 229.653 134.865C231.381 134.619 233.025 132.52 233.779 129.6C233.921 129.05 234.308 127.611 234.639 126.402C235.841 122.015 235.603 117.293 234.069 115.083L232.739 113.167L233.243 109.606C233.745 106.058 233.413 100.425 232.394 95.2C231.085 88.49 231.637 89.481 226.212 84.111C223.484 81.41 221.073 79.2 220.854 79.2C220.636 79.2 220.212 78.975 219.913 78.7C218.533 77.432 213.674 74.985 211 74.212C209.68 73.83 208.15 73.371 207.6 73.192C206.03 72.679 200.116 72.489 196.6 72.838ZM219.586 171.416C218.384 172.634 216.86 174.004 216.2 174.461C215.54 174.917 214.655 176.035 214.233 176.945C207.751 190.941 193.188 190.839 186.681 176.752C186.313 175.956 185.334 174.794 184.506 174.17C183.678 173.546 182.28 172.354 181.4 171.522C180.52 170.69 179.5 170.007 179.132 170.004C177.88 169.996 173.937 174.061 172.737 176.598L171.601 179L171.6 190.484C171.6 199.184 171.721 202.069 172.1 202.382C177.31 206.696 178.145 208.074 178.17 212.4C178.231 223.389 163.833 226.736 158.379 217C155.981 212.719 157.972 205.649 162.219 203.362C164.118 202.339 164.062 202.715 164.278 189.4C164.475 177.169 164.864 174.151 166.508 172.09C167.29 171.11 166.529 171.225 164.174 172.445C160.766 174.212 155.868 176.864 155.4 177.197C155.18 177.353 153.38 178.344 151.4 179.399C140.947 184.966 135.071 188.634 131.6 191.757C129.578 193.577 124.688 199.304 124.006 200.65C123.686 201.283 122.923 202.554 122.31 203.475C120.07 206.842 116.621 215.48 115.552 220.4C115.337 221.39 114.988 222.92 114.776 223.8C114.41 225.321 113.953 227.745 113.195 232.2C113.008 233.3 112.684 235.066 112.474 236.125C112.124 237.9 112.176 238.15 113.144 239.325C114.572 241.057 114.548 241.036 118.4 244.194C120.27 245.727 122.354 247.526 123.031 248.191C124.562 249.696 140.36 264.853 140.967 265.4C141.211 265.62 142.848 267.058 144.605 268.596C146.362 270.135 147.89 271.49 148 271.609C148.285 271.919 155.608 278.405 157.021 279.6C159.36 281.579 162.992 284.616 163.958 285.4C164.5 285.84 165.586 286.753 166.372 287.428C167.157 288.104 168.34 288.844 169 289.072C181.809 293.513 200.764 295.054 214.2 292.745C217.817 292.124 222.077 291.22 223.2 290.835C223.75 290.647 225.01 290.271 226 290.001C226.99 289.73 228.16 289.367 228.6 289.194C229.04 289.021 230.715 288.367 232.322 287.74C233.929 287.113 235.549 286.33 235.922 286C236.295 285.67 237.321 284.865 238.2 284.211C241.697 281.613 247.959 275.688 259.8 263.774C266.62 256.912 273.258 250.533 274.551 249.599C277.673 247.342 284.61 241.342 286.555 239.216L288.11 237.516L287.423 233.658C286.567 228.849 285.367 223.107 284.422 219.3C284.19 218.365 283.849 216.925 283.664 216.1C282.086 209.065 275.595 198.194 269.429 192.263C264.939 187.944 261.389 185.679 248.8 179.106C246.27 177.784 242.94 176.026 241.4 175.198C233.136 170.753 233.731 170.861 234.816 174.004C235.338 175.517 235.578 177.336 235.587 179.85C235.608 185.795 236.383 187.2 239.637 187.2C243.705 187.2 254.8 196.351 254.8 199.705C254.8 200.014 254.923 200.39 255.074 200.541C256.217 201.684 256.388 204.212 256.394 220.064L256.4 236.329L255.169 237.364C254.492 237.934 253.612 238.4 253.213 238.4C252.814 238.4 251.616 239.12 250.551 240C244.356 245.119 235.68 237.876 239.948 231.147C241.538 228.64 244.122 227.423 247.074 227.792L249.2 228.058V217.448C249.2 205.785 248.918 203.507 247.153 200.936C240.329 190.992 222.48 191.33 216.511 201.515C215.261 203.649 214.581 213.703 215.055 223.036L215.301 227.871L217.777 227.836C224.975 227.732 227.959 236.47 222.109 240.525C219.39 242.408 215.149 241.9 212.81 239.41C212.288 238.855 211.428 238.4 210.9 238.4C210.371 238.4 209.413 237.874 208.769 237.231L207.6 236.062V220.608C207.6 201.019 208.029 199.082 213.586 193.6C215.92 191.298 220.928 188.018 222.153 187.99C222.399 187.984 223.86 187.549 225.4 187.023L228.2 186.066V181.533C228.2 176.178 227.169 173.497 224.057 170.757C221.863 168.826 222.189 168.778 219.586 171.416ZM165.854 210.029C163.657 211.757 165.072 215.2 167.979 215.2C170.673 215.2 171.869 211.699 169.746 210.029C169.166 209.573 168.291 209.2 167.8 209.2C167.309 209.2 166.434 209.573 165.854 210.029Z" fill="#093B5B"/>
</svg>
