<svg width="46" height="45" viewBox="0 0 46 45" fill="none" xmlns="http://www.w3.org/2000/svg">
<rect x="0.261719" y="-0.000183105" width="45" height="45" rx="22.5" fill="#FFE603"/>
<path d="M40.7617 8.99988C37.7622 8.94519 37.3141 8.93702 40.7617 8.99988C38.6036 6.38291 38.5153 6.29748 38.6036 6.38291C36.5231 4.35922 34.0531 2.75394 31.3348 1.65873C28.6164 0.563516 25.7029 -0.000183231 22.7605 -0.000183105C19.8182 -0.00018298 16.9047 0.563516 14.1863 1.65873C11.468 2.75394 8.998 4.35922 6.91745 6.38291C6.76172 6.49988 6.76172 6.49988 4.76172 8.99988C7.08935 8.95744 11.7617 8.99988 11.7617 8.99988C11.7617 8.99988 15.7682 9.13059 22.938 8.99988H40.7617Z" fill="#DC3B3B"/>
<path d="M35.2623 3.70763C32.2628 3.65294 32.2623 3.65293 35.2623 3.70763C35.7623 3.99994 33.2623 2.49994 33.2623 2.49994C33.2623 2.49994 32.2623 1.99994 31.3351 1.65879C28.6167 0.563577 25.7032 -0.000122195 22.7609 -0.00012207C19.8185 -0.000121945 16.905 0.563577 14.1867 1.65879C11.4683 2.754 11.2616 2.99988 10.2619 3.70763C10.1651 3.70763 11.5665 3.68678 10.2619 3.70763C12.5895 3.66519 13.7617 3.65169 13.7617 3.65169C13.7617 3.65169 16.0915 3.63059 23.2613 3.49988L35.2623 3.70763Z" fill="#FFE603"/>
<path fill-rule="evenodd" clip-rule="evenodd" d="M1.54556 14.9999L23.39 14.9999L43.9906 14.9999L44.3806 16.2309L44.6987 17.4754L44.9514 18.7761L45.1117 19.9999H23.39V19.9999H0.407227L0.576904 18.7761L0.830875 17.4468L1.15677 16.2118L1.54556 14.9999Z" fill="#DC3B3B"/>
<path d="M41.5305 10.0289C38.5311 9.97424 38.0829 9.96607 41.5305 10.0289C39.5448 7.35569 38.5154 6.29748 38.6037 6.38291C36.5232 4.35922 34.0532 2.75394 31.3349 1.65873C28.6165 0.563516 25.703 -0.000183231 22.7606 -0.000183105C19.8183 -0.00018298 16.9048 0.563516 14.1864 1.65873C11.4681 2.75394 8.9981 4.35922 6.91755 6.38291C6.76182 6.49988 4.43741 9.23879 4.05957 10.0289C7.19442 10.0289 11.5614 10.0289 11.5614 10.0289C11.5614 10.0289 15.891 10.0289 23.0385 10.0289H41.5305Z" fill="#DC3B3B"/>
<path d="M36.8711 4.87478C33.8716 4.80178 33.8711 4.80177 36.8711 4.87478C36.131 4.24248 36.0749 4.23297 35.7617 3.99988C35.4023 3.68347 34.6365 3.10553 34.6365 3.10553C34.6365 3.10553 33.8946 2.39824 31.2617 1.49988C28.6289 0.601511 25.7033 -0.000122237 22.7609 -0.00012207C19.8186 -0.000121903 17.1287 0.353239 14.2621 1.49988C11.7621 2.49988 9.59342 3.92999 8.59375 4.87478C10.0426 4.8529 9.89831 4.84695 8.59375 4.87478C10.9214 4.81813 13.7618 4.87478 13.7618 4.87478C13.7618 4.87478 16.0475 4.87478 23.2617 4.87478H36.8711Z" fill="#FFE603"/>
<path fill-rule="evenodd" clip-rule="evenodd" d="M43.973 29.9709L22.1286 29.9709L1.52796 29.9709L1.13799 28.7399L0.819836 27.4954L0.567185 26.1947L0.406815 24.9709L22.1286 24.9709L22.1286 24.9709L45.1113 24.9709L44.9417 26.1947L44.6877 27.524L44.3618 28.759L43.973 29.9709Z" fill="#DC3B3B"/>
<path d="M3.98802 34.9418C6.9875 34.9965 7.43561 35.0047 3.98802 34.9418C5.97377 37.6151 7.00314 38.6733 6.91482 38.5878C8.99536 40.6115 11.4653 42.2168 14.1837 43.312C16.9021 44.4072 19.8156 44.9709 22.7579 44.9709C25.7002 44.9709 28.6138 44.4072 31.3321 43.312C34.0505 42.2168 36.5205 40.6115 38.601 38.5879C38.7567 38.4709 41.0811 35.732 41.459 34.9418C38.3241 34.9418 33.9571 34.9418 33.9571 34.9418C33.9571 34.9418 29.6275 34.9418 22.48 34.9418L3.98802 34.9418Z" fill="#DC3B3B"/>
<path d="M8.64746 40.096C11.6469 40.169 11.6475 40.169 8.64746 40.096C9.38759 40.7283 9.44366 40.7378 9.75684 40.9709C10.1162 41.2873 10.882 41.8652 10.882 41.8652C10.882 41.8652 11.624 42.5725 14.2568 43.4709C16.8897 44.3693 19.8153 44.9709 22.7576 44.9709C25.6999 44.9709 28.3899 44.6175 31.2565 43.4709C33.7565 42.4709 35.9251 41.0408 36.9248 40.096C35.476 40.1179 35.6202 40.1238 36.9248 40.096C34.5972 40.1526 31.7568 40.096 31.7568 40.096C31.7568 40.096 29.4711 40.096 22.2568 40.096L8.64746 40.096Z" fill="#FFE603"/>
</svg>
