<svg width="46" height="45" viewBox="0 0 46 45" fill="none" xmlns="http://www.w3.org/2000/svg">
<rect x="0.261719" width="45" height="45" rx="22.5" fill="#FFE603"/>
<path d="M43.4605 13.4533C40.4611 13.3987 40.013 13.3905 43.4605 13.4533C42.3346 10.8093 40.6842 8.40679 38.6036 6.3831C36.5231 4.3594 34.0531 2.75413 31.3348 1.65891C28.6164 0.563699 25.7029 -1.25099e-07 22.7605 0C19.8182 1.25099e-07 16.9047 0.563699 14.1863 1.65891C11.468 2.75413 8.998 4.35941 6.91745 6.3831C4.83691 8.40679 3.18653 10.8093 2.06055 13.4533C4.38818 13.4109 5.0604 13.3987 5.0604 13.3987C5.0604 13.3987 15.5908 13.5841 22.7605 13.4533L43.4605 13.4533Z" fill="#DC3B3B"/>
<path d="M2.06289 31.5467C5.06237 31.6013 5.51048 31.6095 2.06289 31.5467C3.18887 34.1907 4.83925 36.5932 6.9198 38.6169C9.00034 40.6406 11.4703 42.2459 14.1887 43.3411C16.907 44.4363 19.8206 45 22.7629 45C25.7052 45 28.6187 44.4363 31.3371 43.3411C34.0555 42.2459 36.5254 40.6406 38.606 38.6169C40.6865 36.5932 42.3369 34.1907 43.4629 31.5467C41.1353 31.5891 40.463 31.6014 40.463 31.6014C40.463 31.6014 29.9327 31.416 22.7629 31.5467L2.06289 31.5467Z" fill="#DC3B3B"/>
</svg>
