<svg width="912" height="166" viewBox="0 0 912 166" fill="none" xmlns="http://www.w3.org/2000/svg">
<path d="M65.2292 56.2448L10.3802 43.3333L0 75.3594L38.0833 91.4323C45.8906 83.5365 54.6198 76.6458 64.2188 70.7604C77.2188 62.7708 88.5677 57.4844 107.859 50.8646L103.589 0H69.9635L65.2292 56.2448ZM57.0573 165.286C79.4792 119.563 122.297 85.6979 173.599 75.5938L163.177 43.474C100.927 50.5052 47.9688 88.2292 19.625 141.208L57.0573 165.286ZM96.2812 133.625L123.562 165.333L150.755 145.573L124.208 101.646C112.214 109.042 100.458 123.38 96.2812 133.625ZM298.24 82.6667C298.24 56.6458 292.958 43.5156 265.047 43.5156H252.109V121.818H265.047C292.958 121.818 298.24 108.688 298.24 82.6667ZM231.469 140.536V24.8021H260.536C301.042 24.8021 319.891 36.9635 319.891 82.6667C319.891 128.37 301.042 140.536 260.536 140.536H231.469ZM370.432 71.0938C357.083 71.0938 350.922 80.151 350.922 99.0781C350.922 118.005 357.083 126.891 370.432 126.891C383.786 126.891 389.776 118.031 389.776 99.0781C389.776 80.125 383.786 71.0938 370.432 71.0938ZM331.495 99.625V98.776C331.495 71.151 344.208 55.3854 370.479 55.3854C396.578 55.3854 409.292 71.151 409.292 98.776V99.625C409.292 127.25 396.578 143.01 370.479 143.01C344.208 143.01 331.495 127.25 331.495 99.625ZM440.984 99.2031C441.036 81.1406 448.859 71.5052 464.432 71.5052C471.016 71.5052 477.703 72.3229 483.776 73.1406V57.8646C478.792 56.8698 470.526 55.7969 462.047 55.7969C438.823 55.7969 421.349 68.5833 421.276 99.1979C421.349 129.818 438.823 142.599 462.047 142.599C470.526 142.599 478.786 141.531 483.776 140.531V125.26C477.703 126.078 471.016 126.891 464.432 126.891C448.859 126.891 441.036 117.26 440.984 99.1979V99.2031ZM498.479 35.2552V113.453C498.479 132.479 504.255 143.01 525.833 143.01C528.786 143.01 533.302 142.583 536.651 141.865V126.307C534.797 126.734 532.26 127.312 529.229 127.312C521.771 127.312 517.339 125.604 517.339 111.172V73.1615H536.651V57.8646H517.339V33.0677L498.479 35.2552ZM585.099 71.0938C571.75 71.0938 565.589 80.151 565.589 99.0781C565.589 118.005 571.75 126.891 585.099 126.891C598.448 126.891 604.438 118.031 604.438 99.0781C604.438 80.125 598.448 71.0938 585.099 71.0938ZM546.156 99.625V98.776C546.156 71.151 558.87 55.3854 585.141 55.3854C611.245 55.3854 623.953 71.151 623.953 98.776V99.625C623.953 127.25 611.245 143.01 585.141 143.01C558.87 143.01 546.156 127.25 546.156 99.625ZM636.766 57.8646V140.536H655.625V99.1719C655.625 88.7917 663.542 77.3594 680.792 73.9896V56.625C668.943 57.2813 658.776 65.0833 654.604 71.1771H654.438L653.099 57.8646H636.766ZM736.49 102.156C721.375 98.3073 706.255 103.036 706.255 114.719C706.255 122.474 711.401 127.026 719.068 126.682C725.115 126.417 731.766 123.734 736.49 119.552V102.156ZM697.411 56.2656C705.604 55.5885 714.49 55.3854 723.073 55.3854C743.286 55.3854 755.349 63.2031 755.349 85.2865V140.536H738.391L737.552 132.266H737.328C731.516 138.531 723.073 142.188 712.255 142.188C697.932 142.188 686.547 132.906 686.547 114.521C686.547 97.4219 700.807 81.5 736.49 89.0729V84.099C736.49 74.2448 730.714 71.4896 719.333 71.4896C712.349 71.4896 706.422 71.9635 697.411 72.7344V56.2656ZM792.203 24.8021L773.349 26.9844V140.536H792.203V24.8021ZM819.854 46.2083C825.766 46.2083 830.557 41.4167 830.557 35.5052C830.557 29.5938 825.766 24.8021 819.854 24.8021C813.943 24.8021 809.151 29.5938 809.151 35.5052C809.151 41.4167 813.943 46.2083 819.854 46.2083ZM829.198 57.8646L810.344 57.9844V140.536H829.198V57.8646ZM892.318 102.156C877.198 98.3073 862.083 103.036 862.083 114.719C862.083 122.474 867.224 127.026 874.896 126.682C880.938 126.417 887.594 123.734 892.318 119.552V102.156ZM853.24 56.2656C861.432 55.5885 870.318 55.3854 878.901 55.3854C899.115 55.3854 911.177 63.2031 911.177 85.2865V140.536H894.219L893.38 132.266H893.156C887.344 138.531 878.901 142.188 868.083 142.188C853.755 142.188 842.375 132.906 842.375 114.521C842.375 97.4219 856.635 81.5 892.318 89.0729V84.099C892.318 74.2448 886.542 71.4896 875.161 71.4896C868.177 71.4896 862.25 71.9635 853.24 72.7344V56.2656Z" fill="#00C3A5"/>
</svg>
