<svg width="16" height="28" viewBox="0 0 16 28" fill="none" xmlns="http://www.w3.org/2000/svg">
<path d="M12.9231 0H3.07692C1.37846 0 0 1.42545 0 3.18182V24.8182C0 26.5745 1.37846 28 3.07692 28H12.9231C14.6215 28 16 26.5745 16 24.8182V3.18182C16 1.42545 14.6215 0 12.9231 0ZM8 26.7273C6.97846 26.7273 6.15385 25.8745 6.15385 24.8182C6.15385 23.7618 6.97846 22.9091 8 22.9091C9.02154 22.9091 9.84615 23.7618 9.84615 24.8182C9.84615 25.8745 9.02154 26.7273 8 26.7273ZM13.5385 21.6364H2.46154V3.81818H13.5385V21.6364Z" fill="#63bd99"/>
</svg>
