<svg width="76" height="129" viewBox="0 0 76 129" fill="none" xmlns="http://www.w3.org/2000/svg">
<path d="M47.9176 66.3203C42.5883 69.037 37.0421 75.1804 30.5671 74.8074C17.8264 74.0733 20.6901 49.5866 22.4844 41.6292C26.3406 24.5288 37.1469 10.3979 51.2542 0.254815C48.4261 -0.715281 45.6927 1.29931 43.2463 2.69345C36.9974 6.2541 30.8787 10.8868 26.0863 16.2733C12.8665 31.1316 3.24924 50.5325 0.537284 70.3243C-0.564476 78.3649 -0.447759 88.4756 5.55459 94.7959C13.2499 102.899 27.0158 100.528 36.573 98.1979C39.915 97.3831 44.4982 96.7245 46.9873 94.1626C53.6359 87.3225 51.9423 73.8798 47.9176 66.3203Z" fill="#63BD99"/>
<path d="M27.2299 60.9817C33.1264 58.9934 37.3973 53.357 43.9131 52.5525C52.3468 51.5114 54.5143 62.804 54.5877 68.9896C54.7899 85.9912 49.9104 101.478 38.459 114.368C34.7479 118.545 26.9167 123.142 25.2279 128.382C50.7045 116.208 67.1615 92.0552 73.8561 64.9857C76.3239 55.0055 77.7233 39.3242 69.2449 31.7614C61.1535 24.5437 48.0866 26.8232 38.5745 29.2692C34.8868 30.2175 30.1758 31.022 27.8766 34.3251C22.2883 42.3537 24.9448 52.4339 27.2299 60.9817Z" fill="#ffffff"/>
</svg>
